<svg width="22" height="22" viewBox="0 0 22 22" fill="none" xmlns="http://www.w3.org/2000/svg">
<path d="M15.5837 17.4166C15.3405 17.4166 15.1074 17.32 14.9355 17.1481C14.7636 16.9762 14.667 16.743 14.667 16.4999V14.6666C14.667 14.1804 14.8601 13.714 15.204 13.3702C15.5478 13.0264 16.0141 12.8333 16.5003 12.8333H18.3337C18.8199 12.8333 19.2862 13.0264 19.63 13.3702C19.9738 13.714 20.167 14.1804 20.167 14.6666V16.4999C20.167 16.743 20.0704 16.9762 19.8985 17.1481C19.7266 17.32 19.4934 17.4166 19.2503 17.4166H15.5837Z" stroke="white" stroke-width="1.28333" stroke-linecap="round" stroke-linejoin="round"/>
<path d="M15.583 19.2501V17.4167" stroke="white" stroke-width="1.28333" stroke-linecap="round" stroke-linejoin="round"/>
<path d="M17.4163 12.8333V5.95833C17.4163 5.10743 17.0783 4.29138 16.4766 3.6897C15.875 3.08802 15.0589 2.75 14.208 2.75C13.3571 2.75 12.5411 3.08802 11.9394 3.6897C11.3377 4.29138 10.9997 5.10743 10.9997 5.95833V16.0417C10.9997 16.8926 10.6617 17.7086 10.06 18.3103C9.4583 18.912 8.64224 19.25 7.79134 19.25C6.94044 19.25 6.12439 18.912 5.52271 18.3103C4.92103 17.7086 4.58301 16.8926 4.58301 16.0417V9.16667" stroke="white" stroke-width="1.28333" stroke-linecap="round" stroke-linejoin="round"/>
<path d="M19.25 19.2501V17.4167" stroke="white" stroke-width="1.28333" stroke-linecap="round" stroke-linejoin="round"/>
<path d="M2.75 4.58333V2.75" stroke="white" stroke-width="1.28333" stroke-linecap="round" stroke-linejoin="round"/>
<path d="M3.66634 9.16659C3.18011 9.16659 2.7138 8.97343 2.36998 8.62961C2.02616 8.2858 1.83301 7.81948 1.83301 7.33325V5.49992C1.83301 5.2568 1.92958 5.02365 2.10149 4.85174C2.2734 4.67983 2.50656 4.58325 2.74967 4.58325H6.41634C6.65946 4.58325 6.89261 4.67983 7.06452 4.85174C7.23643 5.02365 7.33301 5.2568 7.33301 5.49992V7.33325C7.33301 7.81948 7.13985 8.2858 6.79604 8.62961C6.45222 8.97343 5.9859 9.16659 5.49967 9.16659H3.66634Z" stroke="white" stroke-width="1.28333" stroke-linecap="round" stroke-linejoin="round"/>
<path d="M6.41699 4.58333V2.75" stroke="white" stroke-width="1.28333" stroke-linecap="round" stroke-linejoin="round"/>
</svg>
